# xmcd
#
# Track frame offsets:
#	150
#	16533
#	36114
#	46914
#	60996
#	73311
#	88369
#	102661
#	117534
#	132814
#	145939
#	158701
#	169647
#	180414
#	192789
#	207246
#	218073
#	230835
#	243479
#	257119
#
# Disc length: 3565 seconds
#
# Revision: 1
# Processed by: cddbd v1.5.2PL0 Copyright (c) Steve Scherf et al.
# Submitted via: audiograbber 1.83.01
#
DISCID=1f0deb14
DTITLE=THE DEFININITIVE BLUES COLLECTION - STORY OF BLUES
DYEAR=1900
DGENRE=
TTITLE0=Muddy Waters	Story Of Blues 3	Blues Mannish Boy	3:38	\n
TTITLE1=Cadillac Assembly Line	4:21	Albert King	Story Of Blues 3	Blues\n
TTITLE2=Maudie	2:24	John Lee Hooker	Story Of Blues 3	Blues\n
TTITLE3=I Can't Quit You Baby	3:08	Otis Rush	Story Of Blues 3	Blues\n
TTITLE4=Blues Before Sunrise	2:44	Elmore James	Story Of Blues 3	Blues\n
TTITLE5=Sleeping In The Ground	3:21	Robert Cray	Story Of Blues 3	Blues\n
TTITLE6=Reconsider Baby	3:11	Lowell Fulson	Story Of Blues 3	Blues\n
TTITLE7=Make My Getaway	3:18	Big Bill Broonzy	Story Of Blues 3	Blues\n
TTITLE8=Three Hours Past Midnight	3:24	Johnny "Guitar" Watson	Story Of Blues 3	
TTITLE8=Blues\n
TTITLE9=Evil (Is Goin' Out)	2:55	Howlin' Wolf	Story Of Blues 3	Blues\n
TTITLE10=Keep It To Yourself	2:50	Sonny Boy Williamson	Story Of Blues 3	Blues\n
TTITLE11=Blues For My Cookie	2:26	Lightnin' Hopkins	Story Of Blues 3	Blues\n
TTITLE12=Who	2:24	Little Water	Story Of Blues 3	Blues\n
TTITLE13=Sassy Mae	2:45	Memphis Slim	Story Of Blues 3	Blues\n
TTITLE14=Losing Hand	3:13	Ray Charles	Story Of Blues 3	Blues\n
TTITLE15=From Four Till Late	2:24	Robert Johnson	Story Of Blues 3	Blues\n
TTITLE16=Long Skirt Baby Blues	2:50	T-Bone Walker	Story Of Blues 3	Blues\n
TTITLE17=TV Mama	2:49	Big Joe Turner	Story Of Blues 3	Blues\n
TTITLE18=3 O'clock Blues	3:02	B.B. King	Story Of Blues 3	Blues\n
TTITLE19=Goin' To New York	2:17	Jimmy Reed	Story Of Blues 3	Blues\n
EXTD=
EXTT0=MUDDY WATER
EXTT1=
EXTT2=
EXTT3=
EXTT4=
EXTT5=
EXTT6=
EXTT7=
EXTT8=
EXTT9=
EXTT10=
EXTT11=
EXTT12=
EXTT13=
EXTT14=
EXTT15=
EXTT16=
EXTT17=
EXTT18=
EXTT19=
PLAYORDER=
